<?xml version="1.0" encoding="utf-8"?>
<!-- Generator: Adobe Illustrator 16.0.0, SVG Export Plug-In . SVG Version: 6.00 Build 0)  -->
<!DOCTYPE svg PUBLIC "-//W3C//DTD SVG 1.1//EN" "http://www.w3.org/Graphics/SVG/1.1/DTD/svg11.dtd">
<svg version="1.1" id="Layer_1" xmlns="http://www.w3.org/2000/svg" xmlns:xlink="http://www.w3.org/1999/xlink" x="0px" y="0px"
	 width="117.092px" height="117.092px" viewBox="0 0 117.092 117.092" enable-background="new 0 0 117.092 117.092"
	 xml:space="preserve">
<g>
	<path fill="#FFFFFF" d="M3.566,84.992"/>
	<path fill="#FFFFFF" d="M8.211,76.956"/>
	<path fill="#FFFFFF" d="M8.211,76.956"/>
	<path fill="#FFFFFF" d="M3.566,86.141"/>
	<path fill="#FFFFFF" d="M8.211,78.105"/>
	<path fill="#FFFFFF" d="M40.906,63.876l-6.69,1.646c-5.756,1.142-10.824,4.521-14.089,9.399l-1.136,1.685l15.529-3.085
		c4.364-0.998,7.172-5.247,6.378-9.654L40.906,63.876z"/>
	<path fill="#FFFFFF" d="M105.63,90.011l3.87-7.539c3.589-6.266,4.54-13.701,2.645-20.666l-0.651-2.408l-9.677,16.899
		C99.219,81.152,100.898,87.192,105.63,90.011L105.63,90.011z"/>
	<path fill="#FFFFFF" d="M8.211,78.105"/>
	<path fill="#FFFFFF" d="M62.148,66.111c-0.163-0.196-4.1-4.997-4.1-16.993c0-11.715,3.695-25.84,3.854-26.437l1.177-4.457
		l1.18,4.457c0.164,0.595,3.853,14.722,3.853,26.437c0,11.996-3.935,16.796-4.098,16.996l-0.935,1.103L62.148,66.111z"/>
	<path fill="#FFFFFF" d="M72.207,46.125c-2.587,5.643-1.295,9.327-1.295,9.327s3.29-0.677,5.881-6.321
		c1.781-4.529,2.958-9.275,3.49-14.113C77.049,38.296,74.329,42.038,72.207,46.125z"/>
	<path fill="#FFFFFF" d="M48.038,32.53c2.695,7.715,6.499,10.411,6.499,10.411s1.724-3.273-0.97-10.99
		c-2.346-5.935-5.286-11.618-8.778-16.96C45.178,20.944,46.269,26.833,48.038,32.53z"/>
	<path fill="#FFFFFF" d="M68.375,91.158c-8.697,3.891-10.788,9.689-10.788,9.689s4.633,2.794,13.33-1.1
		c8.698-3.893,18.164-12.996,18.164-12.996S77.071,87.262,68.375,91.158z"/>
	<path fill="#FFFFFF" d="M56.771,80.721c-0.325-0.209-8.041-5.257-14.326-20.4c-6.194-14.936-8.694-34.435-8.719-34.631
		l-0.629-5.014l2.97,4.042c0.128,0.177,13.046,17.827,19.232,32.736c6.344,15.278,3.489,22.367,3.365,22.662l-0.603,1.427
		L56.771,80.721z"/>
	<path fill="#FFFFFF" d="M36.686,25.097c0,0,11.999,15.986,17.774,29.608c5.775,13.623,3.14,19.716,3.14,19.716
		s-7.102-4.429-12.876-18.052C38.949,42.747,36.685,25.097,36.686,25.097 M33.096,16.259l1.173,9.146
		c0.094,0.735,2.373,18.142,8.21,31.913c6.006,14.167,13.512,18.972,13.829,19.17l2.401,1.5l1.123-2.598
		c0.312-0.723,2.875-7.465-3.132-21.635c-5.825-13.736-17.572-29.457-18.07-30.12L33.096,16.259L33.096,16.259z"/>
	<path fill="#FFFFFF" d="M57.873,103.535c-0.143,0-0.286-0.036-0.41-0.111l-1.175-0.68c-0.391-0.22-0.529-0.714-0.309-1.105
		c0.001-0.005,0.004-0.011,0.008-0.014l1.966-3.412c0.225-0.39,0.727-0.526,1.121-0.302c0,0,0,0.003,0.001,0.003l1.175,0.68
		c0.392,0.228,0.525,0.726,0.301,1.119l-1.966,3.411C58.438,103.379,58.166,103.535,57.873,103.535z"/>
	<path fill="#FFFFFF" d="M62.133,99.532c-0.811,0.037-1.614-0.184-2.292-0.637l-0.161-0.135l-0.227-0.085
		c-1.045-0.567-1.816-1.534-2.138-2.68c-1.149-3.245-0.9-9.902,6.819-23.258c2.261-3.91,4.743-7.687,7.439-11.31l8.969,5.033
		c0.119,0.068,0.259,0.103,0.397,0.102c0.294,0,0.566-0.159,0.709-0.416c0.22-0.388,0.082-0.885-0.308-1.104l-8.782-4.925
		c3.894-5.084,8.164-9.871,12.774-14.313c0.806-0.805,1.896-1.262,3.034-1.268c1.408,0.01,2.732,0.663,3.6,1.773
		c0.83,1.066,1.112,2.462,0.757,3.766c-2.425,9.847-6.049,19.359-10.791,28.322l-9.65-5.411c-0.12-0.068-0.256-0.105-0.396-0.105
		c-0.295,0-0.565,0.16-0.711,0.418c-0.103,0.188-0.13,0.41-0.069,0.618c0.055,0.208,0.195,0.382,0.382,0.486l9.673,5.425
		c-0.396,0.716-0.788,1.412-1.166,2.067C71.126,97.246,64.998,99.532,62.133,99.532z M62.71,80.279
		c-0.294,0.001-0.563,0.16-0.707,0.416c-0.218,0.393-0.079,0.885,0.311,1.104l10.378,5.82c0.12,0.07,0.257,0.104,0.396,0.104
		c0.293,0.001,0.565-0.156,0.712-0.413c0.218-0.391,0.079-0.885-0.311-1.104l-0.004-0.003l-10.378-5.817
		C62.986,80.315,62.849,80.277,62.71,80.279L62.71,80.279z"/>
	<path fill="#FFFFFF" d="M96.475,39.258L96.475,39.258c1.035,0.017,2.005,0.493,2.646,1.301c0.602,0.77,0.803,1.782,0.532,2.722
		c-2.708,11.039-6.949,21.645-12.6,31.507c-8.88,15.369-14.707,17.026-16.8,17.026c-0.516,0.021-1.026-0.1-1.483-0.338l-0.129-0.283
		l-0.629-0.163c-0.742-0.482-1.274-1.23-1.483-2.09c-0.813-2.478-0.998-8.646,6.771-22.1c5.716-9.825,12.78-18.798,20.991-26.664
		c0.574-0.589,1.36-0.923,2.184-0.928 M96.475,36.815c-1.454,0.005-2.846,0.584-3.876,1.612
		c-8.361,8.036-15.568,17.193-21.414,27.208c-14.021,24.276-4.015,27.7-4.015,27.7c0.891,0.645,1.976,0.972,3.076,0.921
		c3.528,0,9.993-2.811,18.908-18.245c5.749-10.068,10.077-20.887,12.854-32.143c0.765-3.037-1.077-6.116-4.115-6.879
		c-0.467-0.117-0.944-0.175-1.424-0.171L96.475,36.815z"/>
	<line fill="none" x1="58.706" y1="93.863" x2="59.832" y2="49.759"/>
</g>
</svg>
