<?xml version="1.0" encoding="utf-8"?>
<!-- Generator: Adobe Illustrator 16.0.0, SVG Export Plug-In . SVG Version: 6.00 Build 0)  -->
<!DOCTYPE svg PUBLIC "-//W3C//DTD SVG 1.1//EN" "http://www.w3.org/Graphics/SVG/1.1/DTD/svg11.dtd">
<svg version="1.1" id="Layer_1" xmlns="http://www.w3.org/2000/svg" xmlns:xlink="http://www.w3.org/1999/xlink" x="0px" y="0px"
	 width="382.292px" height="153.007px" viewBox="0 0 382.292 153.007" enable-background="new 0 0 382.292 153.007"
	 xml:space="preserve">
<path fill="#FFFFFF" d="M166.136,68.617l-2.308,8.318h-7.597l9.905-32.406h9.616L185.8,76.935h-7.885l-2.5-8.318H166.136z
	 M174.357,63.136l-2.02-6.875c-0.577-1.923-1.154-4.327-1.635-6.25h-0.096c-0.481,1.923-0.961,4.375-1.49,6.25l-1.923,6.875H174.357
	z M212.003,42.798v27.118c0,2.644,0.098,5.433,0.193,7.02h-6.492l-0.336-3.462h-0.096c-1.49,2.645-4.328,3.99-7.357,3.99
	c-5.576,0-10.048-4.759-10.048-12.067c-0.047-7.934,4.904-12.501,10.53-12.501c2.886,0,5.146,1.009,6.202,2.644h0.097V42.798
	H212.003z M204.696,63.376c0-0.385-0.048-0.914-0.097-1.298c-0.434-1.971-2.02-3.606-4.279-3.606c-3.316,0-5.048,2.981-5.048,6.683
	c0,3.991,1.972,6.491,5,6.491c2.116,0,3.798-1.442,4.231-3.51c0.145-0.529,0.191-1.058,0.191-1.683L204.696,63.376L204.696,63.376z
	 M241.093,64.915c0,8.606-6.106,12.549-12.405,12.549c-6.875,0-12.164-4.521-12.164-12.116c0-7.596,5-12.453,12.549-12.453
	C236.285,52.895,241.093,57.847,241.093,64.915z M224.072,65.155c0,4.039,1.684,7.068,4.809,7.068c2.836,0,4.664-2.837,4.664-7.068
	c0-3.51-1.348-7.068-4.664-7.068C225.371,58.087,224.072,61.693,224.072,65.155z M245.611,61.165c0-3.462-0.096-5.722-0.191-7.741
	h6.299l0.24,4.327h0.191c1.203-3.414,4.088-4.856,6.348-4.856c0.672,0,1.01,0,1.539,0.096v6.875
	c-0.529-0.096-1.154-0.192-1.973-0.192c-2.691,0-4.52,1.442-5,3.702c-0.096,0.48-0.145,1.058-0.145,1.635v11.924h-7.31
	L245.611,61.165L245.611,61.165z M276.721,76.935l-0.435-2.356h-0.143c-1.539,1.875-3.943,2.885-6.732,2.885
	c-4.76,0-7.596-3.462-7.596-7.212c0-6.106,5.48-9.039,13.799-8.991v-0.336c0-1.25-0.674-3.029-4.279-3.029
	c-2.403,0-4.953,0.817-6.489,1.779l-1.349-4.712c1.635-0.914,4.857-2.067,9.138-2.067c7.836,0,10.336,4.616,10.336,10.145v8.173
	c0,2.26,0.096,4.423,0.338,5.722L276.721,76.935L276.721,76.935z M275.855,65.829c-3.848-0.048-6.828,0.865-6.828,3.702
	c0,1.875,1.25,2.789,2.885,2.789c1.828,0,3.318-1.202,3.799-2.692c0.097-0.385,0.146-0.817,0.146-1.25L275.855,65.829
	L275.855,65.829z M296.531,46.692v6.731h5.24v5.385h-5.24v8.51c0,2.837,0.672,4.135,2.885,4.135c0.914,0,1.635-0.096,2.164-0.192
	l0.047,5.529c-0.961,0.383-2.69,0.625-4.76,0.625c-2.354,0-4.326-0.817-5.479-2.021c-1.347-1.395-2.021-3.654-2.021-6.972v-9.616
	h-3.125v-5.385h3.125v-5.097L296.531,46.692z M313.55,46.885c0,2.021-1.538,3.654-3.942,3.654c-2.308,0-3.846-1.635-3.799-3.654
	c-0.047-2.116,1.491-3.702,3.849-3.702C312.013,43.183,313.501,44.769,313.55,46.885z M306.001,76.935V53.424h7.31v23.511H306.001z
	 M342.398,64.915c0,8.606-6.105,12.549-12.404,12.549c-6.875,0-12.164-4.521-12.164-12.116c0-7.596,5-12.453,12.549-12.453
	C337.589,52.895,342.398,57.847,342.398,64.915z M325.378,65.155c0,4.039,1.683,7.068,4.808,7.068c2.838,0,4.664-2.837,4.664-7.068
	c0-3.51-1.347-7.068-4.664-7.068C326.675,58.087,325.378,61.693,325.378,65.155z M346.917,60.924c0-2.933-0.096-5.433-0.192-7.5
	h6.349l0.336,3.221h0.145c0.961-1.49,3.365-3.75,7.26-3.75c4.809,0,8.414,3.173,8.414,10.097v13.943h-7.309v-13.03
	c0-3.029-1.058-5.097-3.701-5.097c-2.02,0-3.221,1.395-3.703,2.741c-0.191,0.433-0.287,1.154-0.287,1.827v13.559h-7.309V60.924
	H346.917z M157.352,88.126h13.354v2.687h-10.154v8.239h9.381v2.65h-9.381v11.221h-3.201L157.352,88.126L157.352,88.126z
	 M183.362,112.923l-0.257-2.244h-0.11c-0.994,1.396-2.906,2.648-5.445,2.648c-3.605,0-5.445-2.539-5.445-5.113
	c0-4.305,3.826-6.659,10.706-6.623v-0.366c0-1.474-0.405-4.121-4.047-4.121c-1.655,0-3.384,0.517-4.635,1.323l-0.736-2.133
	c1.472-0.957,3.605-1.582,5.85-1.582c5.445,0,6.769,3.715,6.769,7.283v6.659c0,1.546,0.074,3.054,0.294,4.269H183.362
	L183.362,112.923z M182.884,103.835c-3.532-0.073-7.542,0.553-7.542,4.011c0,2.098,1.398,3.09,3.054,3.09
	c2.317,0,3.789-1.472,4.304-2.979c0.11-0.332,0.184-0.699,0.184-1.031V103.835L182.884,103.835z M191.234,100.671
	c0-2.096-0.036-3.898-0.146-5.555h2.832l0.111,3.494h0.146c0.81-2.391,2.76-3.898,4.93-3.898c0.368,0,0.625,0.037,0.92,0.109v3.055
	c-0.331-0.074-0.662-0.11-1.104-0.11c-2.281,0-3.9,1.729-4.342,4.157c-0.072,0.441-0.146,0.955-0.146,1.509v9.491h-3.201V100.671
	L191.234,100.671z M203.412,99.937c0-1.84-0.037-3.35-0.146-4.818h2.833l0.147,2.868h0.109c0.993-1.69,2.648-3.272,5.592-3.272
	c2.428,0,4.268,1.471,5.04,3.568h0.073c0.552-0.994,1.251-1.767,1.986-2.318c1.066-0.809,2.244-1.25,3.937-1.25
	c2.354,0,5.851,1.545,5.851,7.725v10.484h-3.164v-10.08c0-3.42-1.25-5.48-3.862-5.48c-1.841,0-3.274,1.361-3.826,2.943
	c-0.147,0.441-0.258,1.029-0.258,1.617v11h-3.164v-10.668c0-2.832-1.25-4.894-3.716-4.894c-2.022,0-3.494,1.619-4.01,3.237
	c-0.185,0.479-0.258,1.029-0.258,1.582v10.742h-3.164V99.937L203.412,99.937z M233.653,109.612c0.956,0.626,2.647,1.288,4.269,1.288
	c2.354,0,3.457-1.177,3.457-2.648c0-1.545-0.92-2.392-3.311-3.273c-3.201-1.141-4.709-2.906-4.709-5.04
	c0-2.87,2.316-5.224,6.145-5.224c1.803,0,3.385,0.515,4.377,1.104l-0.81,2.354c-0.698-0.44-1.985-1.028-3.643-1.028
	c-1.912,0-2.979,1.104-2.979,2.428c0,1.472,1.067,2.134,3.385,3.017c3.09,1.178,4.672,2.724,4.672,5.373
	c0,3.127-2.428,5.334-6.657,5.334c-1.95,0-3.753-0.479-5.005-1.215L233.653,109.612z M256.572,88.126h3.201v22.11h10.596v2.687
	h-13.797V88.126z M277.578,90.003v5.113h4.637v2.465h-4.637v9.603c0,2.207,0.627,3.459,2.43,3.459c0.846,0,1.471-0.11,1.875-0.222
	l0.147,2.429c-0.626,0.257-1.618,0.44-2.87,0.44c-1.508,0-2.723-0.479-3.494-1.36c-0.92-0.957-1.252-2.539-1.252-4.636v-9.713
	h-2.759v-2.465h2.759V90.85L277.578,90.003z M301.013,86.802v21.521c0,1.582,0.037,3.385,0.146,4.6h-2.906l-0.146-3.092h-0.074
	c-0.992,1.987-3.162,3.496-6.068,3.496c-4.305,0-7.615-3.643-7.615-9.051c-0.037-5.923,3.643-9.564,7.982-9.564
	c2.723,0,4.563,1.287,5.371,2.723h0.073V86.802H301.013z M297.775,102.365c0-0.404-0.037-0.955-0.146-1.359
	c-0.479-2.062-2.244-3.754-4.672-3.754c-3.349,0-5.336,2.942-5.336,6.881c0,3.604,1.768,6.584,5.262,6.584
	c2.17,0,4.156-1.434,4.746-3.862c0.109-0.44,0.146-0.883,0.146-1.397V102.365z M305.244,111.009c0-1.36,0.92-2.317,2.207-2.317
	c1.288,0,2.172,0.957,2.172,2.317c0,1.324-0.848,2.318-2.207,2.318C306.126,113.328,305.244,112.333,305.244,111.009z"/>
<path fill="#FFFFFF" d="M95.219,60.176c1.914,1.065,3.797,2.201,5.771,3.142c4.473,2.132,9.01,2.342,13.627,0.324
	c5.961-2.605,10.552-6.848,14.49-11.895c0.65-0.835,0.457-1.44-0.602-1.878c-4.036-1.669-8.043-3.403-12.359-4.313
	c-3.455-0.726-6.875-1.52-10.443-1.368c-5.134,0.218-9.041,3.203-10.464,7.876h-2.921c-0.843,0.912-1.776,1.764-2.784,2.58
	c-1.758,1.424-3.129,3.222-4.669,4.855c-0.445-1.84-1.868-3.693-1.664-5.979c0.042-0.473-0.309-1.101-0.707-1.456h-9.101
	c0.57,1.29,1.116,2.588,1.627,3.896c0.899,2.297,1.719,4.631,2.352,6.995c0.512,1.91,0.712,3.888,1.01,5.84
	c0.114,0.746,0.198,1.51,0.155,2.26c-0.136,2.369-0.5,4.735-0.471,7.103c0.028,2.311-1.513,4.412-0.444,6.944
	c0.761,1.806,0.036,4.062,0.338,6.071c0.378,2.521-0.118,4.734-1.864,6.742c-0.316,0.361-0.52,0.854-0.843,1.178
	c-0.047-1.559-0.072-3.186-0.072-4.842V74.793c0-13.162-5.952-24.15-24.609-24.15c-10.187,0-17.855,2.746-21.747,4.921l3.205,11.218
	c3.663-2.289,9.729-4.235,15.452-4.235c8.584,0,10.187,4.235,10.187,7.211v0.802c-0.007,0-0.014,0-0.021,0
	c-0.072,1.304-0.321,5.615-0.53,6.714c-0.06,0.358-0.11,0.849,0.061,1.147c0.223,0.396,0.418,0.797,0.587,1.199l0.562,1.793
	c0.714,3.332-0.384,6.693-3.159,9.241c-2.292,2.104-5.016,3.496-7.725,4.952c-3.387,1.818-7.028,2.914-10.655,4.07
	c-0.951,0.303-1.42,0.008-1.457-0.913c-0.21-5.575,0.466-10.979,2.974-16.063c1.942-3.938,5.082-6.347,9.259-7.439
	c1.843-0.483,3.736-0.783,5.609-1.149c0.337-0.066,0.69-0.05,1.151-0.078c-3.056,7.104-7.547,13.161-11.971,19.308
	c0.416-0.371,0.833-0.74,1.243-1.116c4.362-3.974,7.786-8.673,10.785-13.71c0.984-1.828,2.28-4.964,1.729-7.949
	c-18.925,0.255-31.293,7.244-31.293,21.396c0,8.928,6.753,17.168,18.084,17.168c6.639,0,12.362-2.403,16.024-6.867h0.344l1.03,5.609
	h9.944c0.509,0.205,1.059,0.383,1.587,0.379c1.555-0.014,3.106-0.187,4.66-0.262c0.839-0.037,1.682-0.008,2.522-0.008
	c-1.918,1.023-3.857,1.725-5.723,2.559c-0.611,0.273-1.027,0.891-1.532,1.35c0.735,0.092,1.507,0.357,2.2,0.244
	c4.232-0.686,8.149-2.016,11.32-4.719c0.841,0.769,1.176,0.713,1.559-0.285c0.184-0.479,0.327-0.98,0.381-1.481
	c0.167,0.136,0.351,0.248,0.558,0.338c0.047-1.437,2.816-8.608,2.728-9.843c-0.132-1.874,0.876-3.65,0.489-5.255
	c0.295-0.817,0.196-1.787,0.414-2.461c0.228-0.255,0.459-0.503,0.69-0.747c0.253-0.102,1.746-1.527,1.958-1.637
	c0.2-0.102,0.581-0.174,1.028-0.219c0.544,0.041,1.094,0.328,1.742,0.836c2.186,1.715,4.707,2.244,7.388,1.748
	c3.862-0.718,7.028-2.656,9.546-5.703c2.364-2.867,4.965-5.492,8.338-7.192c1.056-0.53,2.176-0.935,3.47-1.483
	c-5.871-2.302-11.585-4.202-17.692-4.593c-2.906-0.187-5.733,0.122-8.414,1.355c-3.002,1.382-5.334,4.472-5.318,7.074
	c6.473-2.22,13.572-2.662,16.6-1c-8.004-0.164-14.98,2.16-20.795,6.941c-0.568-2.494-1.081-4.981-0.489-7.536
	c0.107-0.463,0.092-0.947,0.192-1.411c0.108-0.503,0.214-1.023,0.447-1.484c0.033-0.065,0.065-0.131,0.098-0.196
	c0.119-0.817,0.2-2.017,0.16-3.792c-0.111-4.929-3.96-5.021-3.96-5.021v-0.01c0.482-0.354,0.929-0.754,1.248-1.223
	c2.238-3.294,4.896-5.99,8.761-7.368c6.681-2.385,13.487-4.123,20.612-4.397c0.639-0.025,1.277-0.04,1.918-0.06
	c-8.43,2.119-16.852,4.112-24.787,8.085C94.574,59.709,94.872,59.985,95.219,60.176z"/>
<path fill="#FFFFFF" d="M139.875,78.167l-0.002,1c0,0.058-0.048,0.104-0.106,0.104s-0.105-0.047-0.105-0.104v-0.002l0.013-1
	c0.001-0.055,0.046-0.099,0.102-0.099C139.832,78.067,139.875,78.112,139.875,78.167z M139.59,83.039
	c-0.069-0.008-0.131,0.045-0.137,0.112l-0.092,0.996v0.002c-0.006,0.072,0.048,0.136,0.12,0.142
	c0.073,0.006,0.136-0.047,0.142-0.119l0.081-0.998C139.71,83.104,139.66,83.042,139.59,83.039z M139.013,87.978
	c-0.083-0.016-0.162,0.041-0.176,0.124l-0.171,0.985l0,0c-0.014,0.088,0.044,0.168,0.13,0.183s0.167-0.045,0.181-0.131l0.161-0.986
	C139.151,88.071,139.096,87.994,139.013,87.978z M138.045,92.857c-0.096-0.023-0.193,0.032-0.218,0.128l-0.25,0.97v0.002
	c-0.024,0.099,0.036,0.197,0.134,0.223s0.198-0.036,0.223-0.135l0.239-0.971C138.198,92.977,138.14,92.88,138.045,92.857z
	 M136.691,97.643c-0.107-0.037-0.224,0.021-0.261,0.126l-0.326,0.945l-0.001,0.002c-0.037,0.109,0.023,0.229,0.133,0.267
	c0.11,0.036,0.229-0.022,0.266-0.133l0.316-0.949C136.854,97.794,136.797,97.679,136.691,97.643z M134.972,102.279
	c-0.135-0.061-0.293-0.001-0.354,0.135l-0.409,0.91c-0.001,0.002-0.002,0.006-0.003,0.008c-0.06,0.145,0.009,0.309,0.152,0.369
	c0.144,0.059,0.309-0.01,0.369-0.152l0.382-0.922C135.164,102.494,135.104,102.337,134.972,102.279z M132.898,106.748
	c-0.165-0.092-0.372-0.031-0.463,0.135l-0.481,0.875c-0.001,0.004-0.003,0.008-0.005,0.01c-0.089,0.175-0.021,0.389,0.154,0.479
	s0.389,0.021,0.478-0.154l0.456-0.891C133.121,107.037,133.06,106.835,132.898,106.748z M130.477,111.039
	c-0.191-0.125-0.447-0.072-0.573,0.119l-0.55,0.834c-0.002,0.004-0.005,0.008-0.007,0.01c-0.125,0.203-0.062,0.467,0.139,0.59
	c0.202,0.125,0.466,0.063,0.59-0.139l0.525-0.852C130.719,111.412,130.665,111.162,130.477,111.039z M127.728,115.125
	c-0.212-0.164-0.519-0.127-0.685,0.086l-0.615,0.787c-0.002,0.004-0.007,0.01-0.009,0.012c-0.164,0.226-0.115,0.539,0.108,0.703
	c0.224,0.164,0.539,0.115,0.703-0.106l0.591-0.808C127.976,115.585,127.936,115.289,127.728,115.125z M124.668,118.984
	c-0.23-0.211-0.586-0.195-0.797,0.034l-0.676,0.735c-0.003,0.004-0.008,0.011-0.012,0.015c-0.209,0.241-0.182,0.606,0.061,0.815
	c0.242,0.209,0.608,0.184,0.816-0.06l0.653-0.757C124.912,119.539,124.893,119.19,124.668,118.984z M121.316,122.589
	c-0.241-0.258-0.646-0.272-0.905-0.032l-0.732,0.683c-0.004,0.004-0.01,0.01-0.015,0.014c-0.257,0.254-0.259,0.67-0.005,0.927
	c0.254,0.258,0.669,0.26,0.927,0.005l0.71-0.703C121.542,123.24,121.553,122.843,121.316,122.589z M117.694,125.923
	c-0.246-0.311-0.697-0.362-1.007-0.116l-0.784,0.621c-0.005,0.004-0.012,0.01-0.017,0.014c-0.309,0.261-0.348,0.724-0.088,1.031
	c0.261,0.31,0.723,0.349,1.031,0.088l0.764-0.646C117.889,126.667,117.935,126.229,117.694,125.923z M113.808,128.966
	c-0.241-0.352-0.721-0.442-1.073-0.202l-0.826,0.563c-0.001,0.002-0.007,0.004-0.008,0.006c-0.352,0.248-0.437,0.732-0.189,1.086
	c0.247,0.353,0.733,0.437,1.085,0.188l0.818-0.575C113.958,129.792,114.046,129.317,113.808,128.966z M109.674,131.714
	c-0.221-0.387-0.714-0.521-1.101-0.301l-0.868,0.496c-0.002,0.002-0.007,0.004-0.009,0.006c-0.387,0.229-0.516,0.728-0.288,1.113
	c0.228,0.387,0.727,0.516,1.114,0.287l0.861-0.508C109.762,132.585,109.893,132.098,109.674,131.714z M105.335,134.125
	c-0.197-0.42-0.698-0.601-1.118-0.401l-0.904,0.424c-0.002,0.002-0.008,0.004-0.011,0.006c-0.421,0.204-0.596,0.712-0.391,1.134
	c0.205,0.42,0.712,0.596,1.133,0.391l0.898-0.438C105.354,135.039,105.531,134.542,105.335,134.125z M100.818,136.185
	c-0.169-0.452-0.674-0.682-1.126-0.512l-0.936,0.351c-0.002,0.001-0.009,0.004-0.011,0.005c-0.454,0.178-0.678,0.688-0.5,1.143
	c0.178,0.453,0.689,0.678,1.142,0.5l0.931-0.363C100.762,137.132,100.987,136.632,100.818,136.185z M95.542,138.983
	c0.474-0.142,0.744-0.64,0.603-1.112c-0.141-0.475-0.639-0.744-1.113-0.604l-0.958,0.283c-0.469,0.142-0.739,0.634-0.603,1.104
	c0.137,0.474,0.631,0.745,1.104,0.607l0.96-0.277L95.542,138.983z M90.63,140.235c0.474-0.101,0.776-0.565,0.676-1.039
	c-0.1-0.475-0.566-0.776-1.04-0.678l-0.978,0.207c-0.469,0.101-0.771,0.56-0.675,1.028c0.097,0.474,0.558,0.777,1.031,0.683
	l0.979-0.199L90.63,140.235z M85.634,141.087c0.47-0.061,0.802-0.49,0.742-0.961c-0.061-0.471-0.492-0.803-0.962-0.742l-0.992,0.128
	c-0.465,0.062-0.796,0.485-0.739,0.952c0.057,0.469,0.483,0.803,0.952,0.744l0.993-0.119L85.634,141.087z M80.588,141.541
	c0.464-0.021,0.821-0.416,0.798-0.881c-0.023-0.464-0.417-0.82-0.881-0.798l-0.995,0.05c-0.459,0.021-0.815,0.41-0.795,0.871
	c0.019,0.461,0.409,0.819,0.871,0.801l0.995-0.041L80.588,141.541z M75.541,141.591c0.454,0.011,0.829-0.35,0.839-0.803
	c0.01-0.453-0.35-0.828-0.803-0.838l-1-0.021c-0.438-0.01-0.807,0.333-0.827,0.773c-0.02,0.445,0.326,0.824,0.773,0.844l1,0.045
	C75.527,141.591,75.536,141.591,75.541,141.591z M70.491,141.208c0.42,0.043,0.794-0.264,0.837-0.684
	c0.042-0.419-0.264-0.794-0.683-0.836l-0.995-0.102c-0.405-0.041-0.772,0.25-0.823,0.656c-0.051,0.411,0.242,0.789,0.654,0.84
	l0.992,0.123C70.478,141.208,70.486,141.208,70.491,141.208z M65.492,140.427c0.384,0.07,0.752-0.186,0.822-0.567
	c0.07-0.385-0.184-0.753-0.568-0.823l-0.984-0.18c-0.37-0.066-0.729,0.174-0.806,0.544c-0.078,0.375,0.165,0.744,0.541,0.821
	l0.979,0.201C65.48,140.425,65.487,140.425,65.492,140.427z M60.576,139.25c0.347,0.092,0.703-0.113,0.795-0.461
	c0.093-0.347-0.113-0.703-0.46-0.795l-0.966-0.259c-0.333-0.09-0.68,0.104-0.777,0.438c-0.099,0.338,0.096,0.693,0.434,0.791
	l0.96,0.281C60.565,139.246,60.572,139.248,60.576,139.25z M55.776,137.677c0.308,0.109,0.646-0.051,0.755-0.358
	c0.109-0.31-0.052-0.646-0.359-0.756l-0.945-0.336c-0.296-0.104-0.624,0.045-0.736,0.34c-0.114,0.3,0.036,0.636,0.334,0.748
	l0.937,0.358C55.766,137.673,55.772,137.675,55.776,137.677z M51.124,135.729c0.268,0.12,0.583,0,0.704-0.269
	c0.12-0.27,0-0.584-0.268-0.703l-0.909-0.407c-0.257-0.115-0.561-0.005-0.683,0.25c-0.124,0.26-0.014,0.569,0.246,0.694l0.898,0.429
	C51.115,135.725,51.121,135.727,51.124,135.729z M46.65,133.417c0.229,0.125,0.517,0.041,0.642-0.188
	c0.126-0.229,0.042-0.517-0.187-0.644l-0.877-0.479c-0.219-0.119-0.495-0.044-0.621,0.174c-0.127,0.22-0.052,0.503,0.168,0.63
	l0.865,0.502C46.643,133.414,46.647,133.416,46.65,133.417z M42.376,130.753c0.191,0.127,0.447,0.072,0.573-0.117
	c0.125-0.191,0.072-0.448-0.119-0.573l-0.836-0.549c-0.182-0.119-0.427-0.073-0.551,0.106c-0.126,0.183-0.081,0.434,0.102,0.56
	l0.822,0.567C42.37,130.75,42.374,130.753,42.376,130.753z M38.311,127.783c0.166,0.131,0.405,0.102,0.536-0.064
	c0.13-0.166,0.102-0.405-0.063-0.535l-0.785-0.62c-0.162-0.127-0.397-0.103-0.527,0.062c-0.131,0.162-0.105,0.398,0.057,0.528
	l0.779,0.627L38.311,127.783z M34.497,124.507c0.145,0.136,0.372,0.127,0.506-0.02c0.135-0.145,0.126-0.371-0.019-0.506l-0.733-0.68
	c-0.142-0.131-0.364-0.124-0.498,0.018c-0.134,0.141-0.127,0.365,0.014,0.499l0.727,0.687L34.497,124.507z M30.955,120.944
	c0.125,0.138,0.337,0.146,0.473,0.021c0.136-0.125,0.145-0.336,0.02-0.473l-0.677-0.734c-0.123-0.133-0.33-0.145-0.464-0.021
	c-0.135,0.121-0.146,0.33-0.024,0.465l0.67,0.742L30.955,120.944z M27.708,117.113c0.106,0.137,0.301,0.159,0.437,0.053
	c0.135-0.105,0.159-0.301,0.053-0.437l-0.616-0.787c-0.104-0.132-0.295-0.155-0.428-0.054c-0.134,0.104-0.159,0.296-0.056,0.43
	l0.609,0.792L27.708,117.113z M25.185,113.134c0.143-0.094,0.184-0.284,0.091-0.428l-0.545-0.838l-0.001-0.002
	c-0.095-0.144-0.289-0.184-0.433-0.088c-0.145,0.096-0.184,0.289-0.089,0.434l0.551,0.834
	C24.852,113.188,25.042,113.228,25.185,113.134z M22.567,108.9c0.159-0.086,0.218-0.283,0.132-0.441l-0.477-0.879l-0.001-0.002
	c-0.088-0.16-0.289-0.219-0.448-0.131s-0.218,0.289-0.13,0.448l0.482,0.875C22.212,108.928,22.409,108.985,22.567,108.9z
	 M20.295,104.468c0.174-0.075,0.252-0.278,0.175-0.452l-0.405-0.914l-0.001-0.002c-0.079-0.177-0.285-0.254-0.46-0.175
	c-0.175,0.078-0.253,0.285-0.174,0.459l0.411,0.912C19.919,104.468,20.122,104.546,20.295,104.468z M18.383,99.873
	c0.188-0.066,0.288-0.272,0.222-0.461l-0.33-0.943l-0.001-0.002c-0.068-0.19-0.277-0.289-0.467-0.221
	c-0.19,0.066-0.289,0.275-0.221,0.467l0.336,0.939C17.99,99.837,18.195,99.938,18.383,99.873z M16.845,95.141
	c0.208-0.054,0.333-0.265,0.28-0.472l-0.248-0.969c0-0.002-0.001-0.006-0.002-0.008c-0.059-0.212-0.277-0.336-0.489-0.277
	c-0.212,0.06-0.336,0.277-0.278,0.488l0.266,0.965C16.431,95.074,16.64,95.194,16.845,95.141z M15.695,90.326
	c0.237-0.039,0.396-0.267,0.356-0.502l-0.169-0.986c0-0.002-0.001-0.006-0.001-0.008c-0.046-0.242-0.279-0.4-0.521-0.354
	c-0.242,0.046-0.4,0.278-0.354,0.521l0.188,0.982C15.238,90.21,15.461,90.367,15.695,90.326z M14.932,85.432
	c0.266-0.022,0.462-0.259,0.438-0.524l-0.089-0.996c0-0.002-0.001-0.007-0.001-0.009c-0.03-0.271-0.273-0.467-0.544-0.438
	c-0.271,0.031-0.466,0.273-0.437,0.545l0.109,0.994C14.437,85.264,14.669,85.457,14.932,85.432z M14.556,80.494
	c0.293-0.004,0.528-0.244,0.525-0.537l-0.011-1c0-0.002,0-0.008,0-0.01c-0.009-0.298-0.258-0.533-0.557-0.523
	c-0.298,0.009-0.533,0.258-0.524,0.557l0.03,0.998C14.028,80.266,14.266,80.496,14.556,80.494z M14.565,75.544
	c0.322,0.022,0.601-0.22,0.623-0.542l0.069-0.998c0-0.003,0-0.01,0-0.013c0.016-0.328-0.238-0.606-0.566-0.622
	c-0.328-0.016-0.606,0.238-0.622,0.566l-0.047,0.999C14.008,75.25,14.248,75.522,14.565,75.544z M14.96,70.613
	c0.349,0.052,0.674-0.188,0.726-0.537l0.148-0.989c0-0.004,0.001-0.011,0.002-0.014c0.045-0.356-0.207-0.681-0.562-0.727
	c-0.356-0.045-0.681,0.207-0.727,0.563L14.421,69.9C14.378,70.244,14.617,70.561,14.96,70.613z M15.743,65.728
	c0.373,0.087,0.746-0.145,0.833-0.518l0.227-0.974c0.001-0.004,0.002-0.011,0.003-0.015c0.08-0.38-0.164-0.754-0.545-0.834
	c-0.38-0.08-0.754,0.164-0.834,0.545l-0.205,0.979C15.145,65.278,15.375,65.642,15.743,65.728z M16.912,60.924
	c0.394,0.125,0.814-0.094,0.938-0.488l0.301-0.954c0-0.002,0.002-0.008,0.003-0.01c0.12-0.399-0.107-0.82-0.507-0.94
	c-0.4-0.12-0.82,0.107-0.94,0.506l-0.287,0.958C16.304,60.387,16.521,60.801,16.912,60.924z M18.464,56.208
	c0.401,0.163,0.858-0.03,1.021-0.431l0.376-0.927c0.001-0.002,0.003-0.008,0.004-0.011c0.159-0.407-0.043-0.866-0.45-1.024
	c-0.407-0.158-0.866,0.043-1.024,0.45l-0.363,0.932C17.874,55.596,18.067,56.046,18.464,56.208z M20.388,51.631
	c0.405,0.204,0.898,0.041,1.102-0.364l0.449-0.894c0.001-0.002,0.004-0.008,0.005-0.011c0.2-0.411,0.028-0.906-0.383-1.105
	c-0.411-0.199-0.906-0.028-1.105,0.383l-0.437,0.899C19.824,50.943,19.987,51.429,20.388,51.631z M22.67,47.222
	c0.404,0.246,0.931,0.117,1.177-0.287l0.52-0.854c0.001-0.002,0.005-0.008,0.006-0.011c0.242-0.411,0.104-0.94-0.307-1.182
	c-0.411-0.242-0.94-0.104-1.182,0.307l-0.507,0.862C22.14,46.458,22.27,46.979,22.67,47.222z M25.294,43.008
	c0.399,0.289,0.957,0.199,1.246-0.2l0.586-0.81c0.001-0.002,0.006-0.009,0.007-0.011c0.285-0.407,0.187-0.968-0.22-1.253
	c-0.407-0.286-0.968-0.187-1.253,0.22l-0.574,0.819C24.807,42.171,24.898,42.722,25.294,43.008z M28.25,39.01
	c0.386,0.327,0.964,0.279,1.292-0.107l0.646-0.763l0.005-0.006c0.325-0.391,0.272-0.971-0.119-1.296
	c-0.391-0.325-0.971-0.272-1.296,0.119l-0.64,0.769C27.817,38.11,27.866,38.685,28.25,39.01z M31.515,35.251
	c0.367,0.365,0.96,0.362,1.325-0.005l0.704-0.709l0.005-0.006c0.363-0.372,0.356-0.968-0.016-1.331
	c-0.372-0.363-0.968-0.356-1.331,0.016l-0.698,0.715C31.146,34.3,31.15,34.889,31.515,35.251z M35.066,31.763
	c0.345,0.401,0.949,0.447,1.351,0.103l0.758-0.651l0.006-0.005c0.4-0.349,0.441-0.957,0.092-1.357s-0.957-0.441-1.357-0.091
	l-0.753,0.657C34.767,30.764,34.723,31.364,35.066,31.763z M38.881,28.566c0.318,0.437,0.93,0.532,1.367,0.214l0.807-0.589
	l0.007-0.005c0.436-0.323,0.526-0.938,0.203-1.375c-0.323-0.436-0.938-0.526-1.375-0.203l-0.802,0.596
	C38.657,27.524,38.564,28.132,38.881,28.566z M42.936,25.681c0.289,0.47,0.904,0.617,1.374,0.329l0.852-0.523l0.007-0.004
	c0.47-0.293,0.612-0.913,0.319-1.382c-0.294-0.47-0.913-0.612-1.382-0.319l-0.847,0.53C42.793,24.602,42.649,25.213,42.936,25.681z
	 M47.208,23.126c0.255,0.502,0.869,0.702,1.371,0.446l0.891-0.453l0.007-0.004c0.502-0.261,0.697-0.878,0.437-1.38
	c-0.261-0.501-0.878-0.697-1.38-0.437l-0.887,0.46C47.15,22.017,46.954,22.627,47.208,23.126z M51.669,20.919
	c0.219,0.531,0.827,0.785,1.358,0.566l0.924-0.38l0.008-0.003c0.531-0.224,0.781-0.836,0.557-1.368
	c-0.224-0.532-0.836-0.781-1.368-0.557l-0.921,0.388C51.701,19.786,51.451,20.391,51.669,20.919z M56.291,19.08
	c0.181,0.558,0.779,0.863,1.336,0.682l0.951-0.309h0.001c0.557-0.182,0.862-0.781,0.68-1.338c-0.182-0.558-0.781-0.862-1.338-0.681
	l-0.951,0.31C56.414,17.925,56.11,18.522,56.291,19.08z M61.851,16.336c-0.566,0.136-0.916,0.706-0.78,1.272
	c0.136,0.567,0.706,0.916,1.272,0.78l0.972-0.233c0.566-0.134,0.913-0.701,0.779-1.267c-0.134-0.566-0.702-0.917-1.268-0.783
	l-0.973,0.23L61.851,16.336z M66.832,15.326c-0.572,0.089-0.962,0.625-0.873,1.197c0.089,0.571,0.625,0.962,1.197,0.873l0.988-0.154
	c0.571-0.088,0.959-0.621,0.872-1.192c-0.088-0.571-0.622-0.962-1.192-0.875l-0.988,0.151H66.832z M71.877,14.717
	c-0.572,0.043-1.001,0.542-0.958,1.115c0.043,0.572,0.542,1.001,1.115,0.958l0.997-0.075c0.572-0.042,0.998-0.538,0.957-1.11
	s-0.539-1.001-1.11-0.96l-0.998,0.072H71.877z M76.946,14.51c-0.569-0.001-1.033,0.458-1.034,1.028
	c-0.002,0.57,0.458,1.033,1.028,1.035h0.013l0.992,0.003c0.569,0.003,1.033-0.455,1.036-1.023c0.004-0.568-0.455-1.032-1.023-1.036
	l-1.008-0.006L76.946,14.51L76.946,14.51z M82.03,14.702c-0.563-0.046-1.058,0.373-1.104,0.936
	c-0.046,0.563,0.373,1.058,0.936,1.104l0.997,0.082c0.563,0.048,1.054-0.369,1.102-0.932c0.048-0.562-0.369-1.057-0.931-1.105
	l-0.997-0.085H82.03z M87.077,15.295c-0.554-0.09-1.076,0.285-1.166,0.838c-0.09,0.554,0.285,1.076,0.839,1.166l0.987,0.161
	c0.553,0.092,1.072-0.282,1.164-0.834c0.092-0.552-0.281-1.075-0.833-1.167l-0.987-0.164H87.077z M92.06,16.29
	c-0.54-0.133-1.086,0.196-1.22,0.737c-0.133,0.54,0.197,1.086,0.737,1.22l0.971,0.239c0.539,0.135,1.083-0.193,1.217-0.732
	c0.135-0.539-0.193-1.085-0.732-1.22l-0.97-0.243L92.06,16.29z M96.93,17.678c-0.524-0.17-1.087,0.116-1.257,0.64
	s0.116,1.087,0.64,1.257l0.951,0.309c0.51,0.166,1.063-0.106,1.239-0.616c0.179-0.516-0.094-1.078-0.61-1.257l-0.945-0.328
	C96.943,17.683,96.934,17.68,96.93,17.678z M101.672,19.494c-0.484-0.202-1.04,0.027-1.241,0.511
	c-0.201,0.484,0.027,1.04,0.511,1.241l0.921,0.384c0.471,0.196,1.015-0.02,1.221-0.489c0.208-0.475-0.007-1.029-0.482-1.238
	l-0.914-0.401C101.685,19.5,101.676,19.496,101.672,19.494z M106.249,21.682c-0.442-0.227-0.985-0.053-1.213,0.389
	c-0.228,0.442-0.053,0.985,0.389,1.212l0.889,0.458c0.43,0.221,0.961,0.058,1.191-0.37c0.233-0.433,0.072-0.973-0.361-1.207
	l-0.88-0.475C106.26,21.688,106.252,21.684,106.249,21.682z M110.632,24.228c-0.4-0.248-0.925-0.125-1.173,0.275
	s-0.125,0.925,0.275,1.173l0.85,0.527c0.389,0.24,0.901,0.127,1.151-0.258c0.252-0.391,0.141-0.912-0.25-1.165l-0.839-0.543
	C110.643,24.234,110.636,24.229,110.632,24.228z M114.794,27.111c-0.357-0.263-0.86-0.186-1.123,0.171
	c-0.263,0.357-0.186,0.86,0.172,1.123l0.805,0.592c0.347,0.254,0.836,0.187,1.099-0.156c0.267-0.347,0.201-0.845-0.146-1.112
	l-0.793-0.609C114.805,27.119,114.798,27.114,114.794,27.111z M118.688,30.33c-0.306-0.261-0.765-0.225-1.026,0.08
	c-0.261,0.306-0.226,0.765,0.08,1.026l0.76,0.649c0.291,0.248,0.729,0.223,0.988-0.061c0.265-0.29,0.244-0.74-0.046-1.005
	l-0.738-0.674C118.701,30.341,118.693,30.334,118.688,30.33z M122.312,33.853c-0.252-0.252-0.661-0.253-0.914-0.001
	c-0.252,0.252-0.253,0.661-0.001,0.914l0.706,0.708c0.239,0.239,0.627,0.248,0.875,0.016c0.254-0.237,0.268-0.636,0.03-0.89
	l-0.682-0.73C122.322,33.863,122.316,33.857,122.312,33.853z M125.64,37.647c-0.202-0.238-0.558-0.267-0.795-0.064
	c-0.237,0.203-0.266,0.558-0.064,0.795l0.647,0.761c0.191,0.224,0.527,0.258,0.759,0.074c0.237-0.188,0.276-0.533,0.087-0.77
	l-0.623-0.782C125.649,37.657,125.644,37.651,125.64,37.647z M128.655,41.688c-0.156-0.217-0.458-0.266-0.676-0.11
	c-0.217,0.156-0.266,0.458-0.11,0.675l0.584,0.811c0.147,0.205,0.433,0.257,0.643,0.115c0.215-0.145,0.271-0.437,0.126-0.651
	l-0.559-0.828C128.661,41.696,128.658,41.691,128.655,41.688z M131.339,45.946c-0.117-0.193-0.369-0.255-0.562-0.138
	c-0.194,0.117-0.255,0.369-0.139,0.562l0.518,0.855c0.11,0.181,0.346,0.244,0.532,0.139c0.19-0.107,0.257-0.348,0.149-0.538
	l-0.492-0.87C131.344,45.954,131.341,45.949,131.339,45.946z M133.673,50.4c-0.083-0.166-0.284-0.233-0.45-0.15
	c-0.165,0.083-0.232,0.284-0.149,0.45l0.447,0.894c0.078,0.154,0.264,0.22,0.421,0.147c0.16-0.075,0.23-0.265,0.155-0.425
	l-0.42-0.907C133.676,50.407,133.674,50.403,133.673,50.4z M135.64,55.021c-0.054-0.134-0.206-0.198-0.339-0.144
	c-0.133,0.054-0.198,0.206-0.144,0.339l0.375,0.927c0.049,0.123,0.188,0.185,0.313,0.138c0.127-0.047,0.192-0.188,0.145-0.315
	l-0.347-0.938C135.642,55.026,135.641,55.023,135.64,55.021z M137.252,59.776c-0.034-0.111-0.151-0.174-0.262-0.14
	c-0.111,0.034-0.174,0.151-0.14,0.262l0.29,0.957c0.032,0.107,0.145,0.168,0.252,0.137c0.108-0.032,0.171-0.145,0.139-0.253
	l-0.279-0.96C137.252,59.778,137.252,59.777,137.252,59.776z M138.494,64.634c-0.021-0.098-0.117-0.159-0.214-0.138
	c-0.098,0.021-0.159,0.117-0.138,0.215l0.212,0.977c0.021,0.093,0.112,0.153,0.206,0.134c0.094-0.02,0.155-0.111,0.136-0.206
	l-0.201-0.979L138.494,64.634z M139.343,69.573c-0.011-0.083-0.087-0.14-0.169-0.129c-0.082,0.011-0.14,0.087-0.129,0.169
	l0.134,0.991c0.01,0.078,0.082,0.133,0.161,0.124c0.079-0.01,0.135-0.082,0.126-0.161l-0.122-0.992
	C139.343,69.575,139.343,69.573,139.343,69.573z M139.794,74.563c-0.004-0.066-0.061-0.118-0.127-0.114
	c-0.067,0.003-0.118,0.06-0.114,0.127l0.054,0.994c0.003,0.063,0.057,0.111,0.119,0.108c0.063-0.002,0.112-0.056,0.11-0.119
	L139.794,74.563L139.794,74.563z M146.244,76.92c-0.033-0.821,0.004-2.043-0.139-3.628c-0.189-3.17-0.679-7.845-2.245-13.587
	c-1.579-5.714-4.092-12.59-8.602-19.596c-4.462-6.987-10.79-14.205-19.302-20.023c-4.255-2.888-9.013-5.433-14.193-7.447
	c-5.176-2.031-10.821-3.345-16.683-4.052c-1.463-0.189-2.974-0.259-4.469-0.378c-0.737-0.02-1.477-0.04-2.219-0.06l-1.115-0.03
	L76.12,8.141c-0.758,0.018-1.518,0.036-2.28,0.055c-0.762,0.026-1.524,0.104-2.29,0.155c-1.533,0.081-3.061,0.312-4.601,0.499
	c-3.064,0.477-6.153,1.072-9.19,1.979c-1.536,0.395-3.028,0.956-4.543,1.465l-2.236,0.882c-0.75,0.285-1.489,0.603-2.218,0.949
	c-11.775,5.244-22.433,14.076-29.848,25.39c-1.865,2.818-3.48,5.807-4.937,8.875c-1.447,3.076-2.609,6.288-3.605,9.549
	c-0.973,3.272-1.637,6.632-2.136,10.01c-0.465,3.384-0.643,6.825-0.652,10.218c0.114,13.668,4.335,27.211,11.806,38.336
	c7.395,11.197,17.932,19.94,29.574,25.252c0.721,0.349,1.452,0.67,2.196,0.957l2.214,0.893c1.502,0.514,2.98,1.085,4.5,1.497
	c3.009,0.938,6.074,1.563,9.12,2.075c1.532,0.203,3.046,0.451,4.585,0.55c0.764,0.062,1.534,0.146,2.288,0.183
	c0.751,0.024,1.5,0.051,2.247,0.075c1.529,0.07,3.018-0.036,4.514-0.047c1.488-0.112,2.973-0.174,4.436-0.354
	c5.85-0.683,11.495-1.957,16.669-3.975c5.178-1.999,9.938-4.527,14.197-7.402c8.519-5.795,14.848-13.011,19.314-19.992
	c4.51-7.002,7.021-13.877,8.605-19.588c1.57-5.74,2.063-10.412,2.253-13.586c0.144-1.588,0.108-2.806,0.141-3.627
	c0.017-0.82,0.026-1.244,0.026-1.244S146.261,77.742,146.244,76.92z M146.032,79.408c-0.041,0.817-0.017,2.041-0.175,3.616
	c-0.22,3.151-0.756,7.808-2.372,13.5c-0.75,2.86-1.902,5.937-3.353,9.185c-1.448,3.25-3.315,6.631-5.613,10.028
	c-4.577,6.8-11.059,13.63-19.46,19.167c-8.384,5.521-18.748,9.631-30.187,10.979c-1.425,0.188-2.874,0.256-4.326,0.377
	c-1.453,0.019-2.933,0.135-4.391,0.074c-0.747-0.013-1.496-0.023-2.247-0.037c-0.748-0.021-1.479-0.09-2.223-0.131
	c-1.482-0.064-2.977-0.277-4.479-0.445c-2.99-0.438-6.008-0.989-8.979-1.848c-1.502-0.373-2.963-0.904-4.451-1.377l-2.195-0.83
	c-0.738-0.268-1.464-0.566-2.181-0.896c-11.601-4.931-22.14-13.539-29.496-24.608c-1.842-2.765-3.439-5.699-4.882-8.711
	c-1.434-3.021-2.586-6.176-3.577-9.381c-0.962-3.218-1.618-6.521-2.114-9.846c-0.462-3.332-0.64-6.696-0.654-10.059
	C8.8,64.709,12.99,51.395,20.379,40.488c7.336-10.955,17.754-19.475,29.222-24.472c0.709-0.331,1.428-0.634,2.159-0.904l2.174-0.839
	c1.475-0.477,2.922-1.019,4.408-1.409c2.942-0.889,5.937-1.473,8.908-1.945c1.494-0.185,2.975-0.415,4.463-0.496
	c0.743-0.051,1.482-0.13,2.222-0.158c0.74-0.02,1.478-0.039,2.213-0.059l1.077-0.025l1.115,0.027
	c0.742,0.018,1.482,0.035,2.219,0.053c1.445,0.115,2.868,0.173,4.292,0.354c11.42,1.281,21.787,5.359,30.178,10.856
	c8.408,5.514,14.892,12.341,19.472,19.135c2.298,3.398,4.166,6.776,5.614,10.026c1.45,3.247,2.604,6.321,3.355,9.181
	c1.62,5.691,2.158,10.342,2.38,13.498c0.16,1.578,0.136,2.796,0.178,3.615c0.025,0.82,0.038,1.24,0.038,1.24
	S146.056,78.585,146.032,79.408z"/>
</svg>
