<?xml version="1.0" encoding="utf-8"?>
<!-- Generator: Adobe Illustrator 16.0.0, SVG Export Plug-In . SVG Version: 6.00 Build 0)  -->
<!DOCTYPE svg PUBLIC "-//W3C//DTD SVG 1.1//EN" "http://www.w3.org/Graphics/SVG/1.1/DTD/svg11.dtd">
<svg version="1.1" id="Layer_1" xmlns="http://www.w3.org/2000/svg" xmlns:xlink="http://www.w3.org/1999/xlink" x="0px" y="0px"
	 width="117.092px" height="117.092px" viewBox="0 0 117.092 117.092" enable-background="new 0 0 117.092 117.092"
	 xml:space="preserve">
<g>
	<path fill="#FFFFFF" d="M28.607,88.561l-5.881,2.962c-5.179,2.606-9.112,7.164-10.932,12.673l-0.628,1.901l13.974-7.033
		C28.998,97.121,30.55,92.419,28.607,88.561L28.607,88.561z"/>
	<path fill="#FFFFFF" d="M93.3,66.377l5.178-3.369c4.562-2.968,7.758-7.625,8.883-12.95l0.391-1.836l-12.303,8.001
		C92.051,58.433,91.089,62.979,93.3,66.377L93.3,66.377z"/>
	<path fill="#FFFFFF" d="M15.625,48.46l-1.893-1.195l16.178-25.531l14.807,7.967l13.323-16.514l1.743,1.406L45.29,32.553
		l-14.604-7.86L15.625,48.46z"/>
	<circle fill="#FFFFFF" cx="14.678" cy="47.861" r="3.511"/>
	<path fill="#FFFFFF" d="M14.678,52.492c-2.557,0-4.629-2.072-4.629-4.628c0-2.556,2.072-4.628,4.629-4.628
		c2.556,0,4.628,2.072,4.628,4.628l0,0C19.303,50.418,17.231,52.488,14.678,52.492z M14.678,45.475c-1.319,0-2.39,1.07-2.39,2.391
		c0,1.319,1.07,2.388,2.39,2.388s2.389-1.069,2.389-2.388l0,0c0.003-1.321-1.063-2.394-2.383-2.394c-0.001,0-0.003,0-0.005,0V45.475
		z"/>
	<circle fill="#FFFFFF" cx="30.297" cy="23.211" r="3.512"/>
	<path fill="#FFFFFF" d="M30.293,27.844c-2.556,0-4.628-2.072-4.628-4.629c0-2.556,2.072-4.628,4.628-4.628s4.628,2.072,4.628,4.628
		l0,0C34.919,25.77,32.848,27.839,30.293,27.844z M30.293,20.826c-1.318,0-2.388,1.07-2.388,2.389c0,1.321,1.068,2.39,2.388,2.39
		s2.389-1.069,2.389-2.39l0,0c0.004-1.318-1.062-2.392-2.381-2.396c-0.001,0-0.005,0-0.008,0V20.826z"/>
	<circle fill="#FFFFFF" cx="45.002" cy="30.874" r="3.511"/>
	<path fill="#FFFFFF" d="M45.003,35.506c-2.556,0-4.628-2.072-4.628-4.628c0-2.557,2.072-4.628,4.628-4.628
		c2.557,0,4.628,2.072,4.628,4.628l0,0C49.628,33.432,47.559,35.501,45.003,35.506z M45.003,28.489
		c-1.318,0-2.389,1.069-2.389,2.389c0,1.318,1.069,2.388,2.389,2.388c1.32,0,2.39-1.069,2.39-2.388l0,0
		c0.002-1.32-1.063-2.392-2.383-2.396c-0.001,0-0.003,0-0.006,0V28.489z"/>
	<circle fill="#FFFFFF" cx="58.911" cy="13.888" r="3.511"/>
	<path fill="#FFFFFF" d="M58.911,18.52c-2.556,0-4.628-2.072-4.628-4.629c0-2.556,2.072-4.627,4.628-4.627
		c2.557,0,4.63,2.072,4.63,4.627l0,0C63.535,16.446,61.468,18.515,58.911,18.52z M58.911,11.502c-1.318,0-2.388,1.069-2.388,2.388
		c0,1.32,1.069,2.39,2.388,2.39c1.319,0,2.39-1.069,2.39-2.39l0,0c0.003-1.319-1.063-2.392-2.382-2.394c-0.004,0-0.006,0-0.008,0
		V11.502z"/>
	<path fill="#FFFFFF" d="M79.868,89.398H58.979c-2.246-0.063-4.414-0.839-6.189-2.218c-4.962-3.635-13.885-12.659-18.215-21.361
		c-0.167-0.334-0.142-0.731,0.065-1.043c0.197-0.318,0.545-0.514,0.919-0.517h0.023c3.412,0.075,5.491,2.317,7.688,4.696
		c2.131,2.307,4.33,4.688,7.836,5.345c-0.073,0.363-0.11,0.731-0.11,1.102c0.004,3.094,2.511,5.599,5.601,5.602h12.951v-2.239
		H56.597c-1.856,0-3.36-1.505-3.362-3.362c0-1.854,1.505-3.362,3.362-3.366h11.705c0.913,0.022,1.814-0.235,2.581-0.734
		c1.942-1.169,4.187-1.749,6.454-1.66c2.526-0.092,5.028,0.546,7.201,1.839c2.421,1.823,4.554,3.999,6.326,6.452L79.862,89.396
		L79.868,89.398z"/>
	<path fill="#FFFFFF" d="M77.063,94.548l8.857,8.394l19.299-20.367l-11.54-5.226L77.063,94.548z"/>
	<path fill="#FFFFFF" d="M71.919,19.698c-0.769,0-1.437,0.53-1.609,1.279l-1.769,7.367c-5.204,0.799-9.194,4.146-10.21,8.558
		c-1.062,4.628,1.814,7.069,6.895,9.196c3.672,1.594,5.387,3.402,4.716,6.324c-0.697,3.032-3.82,5.209-7.692,5.209
		c-1.98,0.012-3.938-0.429-5.721-1.291c-1.024-0.497-2.259-0.068-2.755,0.956c-0.496,1.026-0.068,2.26,0.956,2.756
		c0.033,0.017,0.066,0.032,0.102,0.046c1.835,0.734,3.79,1.125,5.767,1.15l-1.439,5.376c-0.225,0.897,0.317,1.808,1.212,2.033
		c0.899,0.224,1.809-0.317,2.036-1.215c0.006-0.024,0.011-0.047,0.018-0.071l1.647-6.271c5.071-0.558,9.302-4.131,10.701-9.037
		c1.089-4.733-1.116-7.496-6.226-9.73c-4.308-1.913-6.01-3.295-5.374-6.059c0.487-2.125,2.633-4.572,6.833-4.572
		c1.688-0.031,3.358,0.296,4.91,0.96c0.266,0.118,0.551,0.179,0.842,0.179c1.116,0,2.022-0.906,2.022-2.023
		c-0.004-0.838-0.518-1.587-1.301-1.888c-1.449-0.497-2.971-0.763-4.507-0.788l1.55-6.42c0.213-0.882-0.333-1.768-1.214-1.979
		C72.182,19.713,72.053,19.696,71.919,19.698z"/>
	<path fill="#FFFFFF" d="M99.244,28.182c-0.306,0-0.57,0.21-0.643,0.509l-0.702,2.933c-1.926,0.192-3.537,1.542-4.066,3.405
		c-0.42,1.841,0.723,2.814,2.746,3.66c1.462,0.634,2.143,1.354,1.877,2.519c-0.417,1.317-1.684,2.175-3.063,2.072
		c-0.786,0.005-1.565-0.17-2.274-0.513c-0.113-0.057-0.239-0.085-0.365-0.085c-0.288,0-0.553,0.151-0.702,0.397
		c-0.233,0.391-0.104,0.898,0.285,1.13c0.033,0.019,0.068,0.036,0.106,0.052c0.729,0.293,1.507,0.448,2.293,0.458l-0.573,2.136
		c-0.094,0.359,0.123,0.722,0.479,0.813c0.354,0.095,0.719-0.118,0.813-0.477c0.003-0.012,0.007-0.024,0.009-0.034l0.656-2.501
		c2.018-0.219,3.702-1.642,4.258-3.595c0.435-1.885-0.446-2.986-2.476-3.873c-1.716-0.76-2.389-1.311-2.141-2.411
		c0.354-1.18,1.495-1.943,2.719-1.819c0.67-0.011,1.337,0.118,1.955,0.381c0.403,0.191,0.884,0.02,1.076-0.382
		c0.189-0.403,0.02-0.883-0.384-1.075c-0.021-0.011-0.045-0.02-0.067-0.028c-0.578-0.197-1.182-0.303-1.792-0.313l0.617-2.553
		c0.08-0.355-0.141-0.707-0.493-0.787C99.343,28.187,99.294,28.183,99.244,28.182L99.244,28.182L99.244,28.182z"/>
	<path fill="#FFFFFF" d="M26.635,52.583c-0.413,0-0.769,0.285-0.86,0.686l-0.946,3.94c-2.59,0.259-4.755,2.078-5.462,4.58
		c-0.569,2.473,0.97,3.781,3.688,4.916c1.965,0.855,2.879,1.821,2.521,3.386c-0.558,1.773-2.264,2.926-4.115,2.786
		c-1.058,0.008-2.104-0.229-3.059-0.689c-0.513-0.259-1.139-0.075-1.433,0.42c-0.313,0.522-0.144,1.201,0.381,1.515
		c0.047,0.028,0.094,0.053,0.145,0.073c0.98,0.395,2.026,0.604,3.084,0.617l-0.771,2.87c-0.11,0.482,0.189,0.965,0.674,1.075
		c0.483,0.11,0.963-0.189,1.073-0.674l0,0l0.883-3.359c2.711-0.296,4.975-2.207,5.725-4.831c0.583-2.538-0.598-4.011-3.33-5.203
		c-2.306-1.024-3.217-1.765-2.876-3.242c0.476-1.587,2.01-2.61,3.656-2.444c0.902-0.018,1.797,0.158,2.626,0.512
		c0.14,0.064,0.294,0.096,0.448,0.096c0.597,0,1.081-0.483,1.081-1.082c0-0.448-0.276-0.849-0.694-1.009
		c-0.776-0.266-1.588-0.409-2.41-0.423l0.829-3.434c0.109-0.474-0.187-0.949-0.662-1.059c-0.064-0.015-0.131-0.022-0.198-0.022
		H26.635z"/>
	<path fill="#FFFFFF" d="M48.777,87.977c-0.287,0-0.535,0.198-0.598,0.475l-0.66,2.741c-1.799,0.179-3.304,1.441-3.796,3.182
		c-0.396,1.719,0.675,2.628,2.566,3.421c1.363,0.594,2,1.266,1.751,2.351c-0.387,1.233-1.574,2.038-2.861,1.941
		c-0.737,0.006-1.465-0.158-2.128-0.478c-0.104-0.055-0.221-0.083-0.339-0.083c-0.425,0-0.768,0.344-0.768,0.77
		c0,0.312,0.188,0.594,0.478,0.71c0.682,0.273,1.41,0.418,2.144,0.427l-0.536,1.997c-0.063,0.338,0.161,0.664,0.5,0.728
		c0.317,0.06,0.628-0.136,0.715-0.448l0.612-2.336c1.887-0.205,3.46-1.534,3.98-3.361c0.405-1.758-0.414-2.785-2.315-3.616
		c-1.604-0.712-2.24-1.227-2.001-2.255c0.332-1.099,1.395-1.811,2.538-1.696c0.627-0.014,1.25,0.107,1.826,0.354
		c0.098,0.045,0.206,0.067,0.313,0.067c0.412,0.022,0.763-0.294,0.784-0.705c0.018-0.341-0.194-0.646-0.516-0.75
		c-0.54-0.187-1.106-0.288-1.676-0.299l0.577-2.392c0.073-0.329-0.136-0.656-0.468-0.73c-0.043-0.011-0.086-0.013-0.131-0.016h0.009
		V87.977z"/>
</g>
</svg>
