<?xml version="1.0" encoding="utf-8"?>
<!-- Generator: Adobe Illustrator 16.0.0, SVG Export Plug-In . SVG Version: 6.00 Build 0)  -->
<!DOCTYPE svg PUBLIC "-//W3C//DTD SVG 1.1//EN" "http://www.w3.org/Graphics/SVG/1.1/DTD/svg11.dtd">
<svg version="1.1" id="Layer_1" xmlns="http://www.w3.org/2000/svg" xmlns:xlink="http://www.w3.org/1999/xlink" x="0px" y="0px"
	 width="117.092px" height="117.092px" viewBox="0 0 117.092 117.092" enable-background="new 0 0 117.092 117.092"
	 xml:space="preserve">
<g>
	<path fill="#FFFFFF" d="M18.405,76.354l-1.182-7.636c-1.04-6.729-4.711-12.766-10.203-16.787l-1.896-1.388L7.93,68.686
		C8.704,73.694,13.392,77.128,18.405,76.354C18.403,76.354,18.403,76.354,18.405,76.354z"/>
	<path fill="#FFFFFF" d="M91.782,83.686l3.331-6.974c2.937-6.142,8.188-10.866,14.607-13.135l2.219-0.785l-7.916,16.563
		c-2.182,4.575-7.659,6.513-12.232,4.33C91.788,83.686,91.785,83.686,91.782,83.686L91.782,83.686z"/>
	<path fill="#FFFFFF" d="M57.971,83.327H27.176c-2.375-0.002-4.3-1.927-4.301-4.301V22.328c0.001-2.375,1.927-4.298,4.301-4.301
		h30.795c2.375,0.003,4.299,1.927,4.302,4.301v56.698C62.271,81.4,60.347,83.325,57.971,83.327z M39.476,75.062
		c-0.834,0-1.507,0.674-1.507,1.508c0,0.833,0.673,1.507,1.507,1.507h7.539c0.832,0,1.507-0.674,1.507-1.507
		c0-0.834-0.675-1.508-1.507-1.508H39.476z M55.54,42.43L55.54,42.43l-0.649,0.835l3.133,2.422
		c-11.896,1.262-20.913,11.312-20.881,23.274c0,0.416,0.338,0.755,0.753,0.755c0.417,0,0.754-0.339,0.754-0.755
		c-0.006-5.443,2.019-10.698,5.681-14.729c3.638-4.015,8.641-6.534,14.033-7.065l-2.828,3.155l0.785,0.707l4.233-4.72l-0.521-0.399
		c-0.088-0.15-0.229-0.258-0.396-0.309l-4.097-3.168L55.54,42.43z"/>
	<path fill="#FFFFFF" d="M63.21,91.785c-0.625,0.025-1.153-0.462-1.175-1.087c-0.024-0.625,0.462-1.148,1.086-1.174
		c10.687-0.89,18.918-9.8,18.955-20.521c0.015-5.462-2.155-10.705-6.03-14.556c-0.434-0.45-0.418-1.165,0.03-1.6
		c0.438-0.422,1.133-0.42,1.568,0c4.302,4.276,6.709,10.092,6.692,16.155c-0.045,11.899-9.184,21.788-21.041,22.775L63.21,91.785z"
		/>
	<path fill="#FFFFFF" d="M67.509,83.358l1.229,0.999l-4.941,6.046l6.389,4.484l-0.904,1.298l-7.779-5.465L67.509,83.358z"/>
	<path fill="#FFFFFF" d="M61.493,100.849c-7.114,0.022-14.029-2.359-19.62-6.761c-0.492-0.387-0.577-1.099-0.191-1.59
		c0.386-0.49,1.096-0.578,1.587-0.192c5.193,4.09,11.617,6.305,18.224,6.28c16.341-0.005,29.583-13.25,29.579-29.591
		c-0.004-12.874-8.33-24.267-20.595-28.178c-0.59-0.201-0.908-0.844-0.705-1.434c0.196-0.577,0.812-0.895,1.391-0.72
		c16.759,5.344,26.01,23.26,20.664,40.017C87.615,91.882,75.351,100.844,61.493,100.849L61.493,100.849z"/>
</g>
</svg>
