<?xml version="1.0" encoding="utf-8"?>
<!-- Generator: Adobe Illustrator 16.0.0, SVG Export Plug-In . SVG Version: 6.00 Build 0)  -->
<!DOCTYPE svg PUBLIC "-//W3C//DTD SVG 1.1//EN" "http://www.w3.org/Graphics/SVG/1.1/DTD/svg11.dtd">
<svg version="1.1" id="Layer_1" xmlns="http://www.w3.org/2000/svg" xmlns:xlink="http://www.w3.org/1999/xlink" x="0px" y="0px"
	 width="117.092px" height="117.092px" viewBox="0 0 117.092 117.092" enable-background="new 0 0 117.092 117.092"
	 xml:space="preserve">
<g>
	<path fill="#FFFFFF" d="M61.955,84.269c-19.598,0-35.543-15.945-35.543-35.544S42.357,13.18,61.955,13.18
		c19.6,0,35.545,15.946,35.545,35.544S81.555,84.269,61.955,84.269z M61.955,14.733c-18.742,0-33.991,15.248-33.991,33.992
		c0,18.741,15.249,33.99,33.991,33.99c18.743,0,33.991-15.247,33.991-33.99C95.946,29.981,80.698,14.733,61.955,14.733z"/>
	<path fill="#FFFFFF" d="M6.251,80.56"/>
	<path fill="#FFFFFF" d="M10.698,72.873"/>
	<path fill="#FFFFFF" d="M92.207,84.567l5.589-1.641c4.926-1.445,9.078-4.784,11.54-9.287l0.853-1.553l-13.287,3.893
		c-3.669,1.075-5.773,4.92-4.7,8.59L92.207,84.567z"/>
	<path fill="#FFFFFF" d="M44.84,101.763l-4.287-3.797c-3.772-3.343-6.062-8.05-6.365-13.082l-0.106-1.739l10.183,9.019
		c2.812,2.49,3.073,6.786,0.582,9.6l0,0H44.84L44.84,101.763z"/>
	<path fill="#FFFFFF" d="M10.698,72.873"/>
	<path fill="#FFFFFF" d="M76.846,67.269c-1.412-0.207-2.782-0.625-4.069-1.241c-6.025-3.176-13.228-3.176-19.255,0
		c-1.285,0.614-2.659,1.034-4.07,1.241c-0.477,0-0.621-0.157-0.728-0.334c-0.361-0.797-0.511-1.674-0.43-2.545
		c-0.014-8.205,6.625-14.866,14.831-14.88c8.203-0.015,14.866,6.625,14.879,14.828c0,0.02,0,0.036,0,0.052
		C78.007,67.269,77.253,67.269,76.846,67.269z"/>
	<path fill="#FFFFFF" d="M63.15,50.701c7.559,0.009,13.686,6.133,13.691,13.69c0.022,0.575-0.035,1.147-0.165,1.709
		c-1.191-0.268-2.354-0.654-3.465-1.159c-6.304-3.282-13.813-3.282-20.117,0c-1.114,0.505-2.274,0.89-3.468,1.149
		c-0.128-0.553-0.185-1.124-0.164-1.695c0.007-7.556,6.132-13.683,13.688-13.688 M63.15,48.376c-8.845,0-16.017,7.172-16.017,16.018
		l0,0c0,3.043,0.848,4.038,2.329,4.038c2.809,0,7.892-3.63,13.694-3.63c5.805,0,10.891,3.63,13.698,3.63
		c1.473,0,2.322-0.999,2.322-4.038c0-8.846-7.171-16.018-16.021-16.018l0,0H63.15z"/>
	<path fill="#FFFFFF" d="M63.15,45.153c-4.8,0-8.694-3.891-8.694-8.693c0-4.803,3.893-8.695,8.694-8.695
		c4.807,0,8.698,3.892,8.698,8.695l0,0C71.843,41.259,67.952,45.148,63.15,45.153z"/>
	<path fill="#FFFFFF" d="M63.15,28.932c4.161,0,7.532,3.371,7.532,7.529c0,4.158-3.371,7.527-7.532,7.527
		c-4.157,0-7.528-3.37-7.528-7.527l0,0C55.627,32.304,58.996,28.936,63.15,28.932 M63.15,26.603c-5.442,0-9.857,4.413-9.857,9.858
		c0,5.444,4.415,9.856,9.857,9.856c5.447,0,9.861-4.413,9.861-9.856l0,0C73.011,31.015,68.595,26.603,63.15,26.603z"/>
</g>
</svg>
